<svg width="64" height="64" viewBox="0 0 64 64" fill="none" xmlns="http://www.w3.org/2000/svg"><path d="M33.154 52.77a1.154 1.154 0 1 1 0 2.307H7.769a1.154 1.154 0 1 1 0-2.308z" fill="#969DD3"/><path fill-rule="evenodd" clip-rule="evenodd" d="M59.928 44.705A2.307 2.307 0 0 1 62 47v12.692l-.012.236a2.31 2.31 0 0 1-2.06 2.06l-.236.012H4.308l-.236-.012a2.31 2.31 0 0 1-2.06-2.06L2 59.692V47c0-1.195.908-2.177 2.072-2.295l.236-.013h55.384zM4.308 59.692h55.384V47H4.308z" fill="#969DD3"/><path d="M51.734 30.852a1.154 1.154 0 0 1 0 2.296l-.119.006H7.77a1.154 1.154 0 1 1 0-2.308h43.846zm-11.539-5.769a1.154 1.154 0 0 1 0 2.296l-.118.006H7.769a1.154 1.154 0 1 1 0-2.308h32.308zm-18.461-5.77a1.154 1.154 0 0 1 0 2.297l-.119.005H7.77a1.154 1.154 0 0 1 0-2.307h13.846zM33.154 7.77a1.154 1.154 0 1 1 0 2.307H7.769a1.154 1.154 0 1 1 0-2.308z" fill="#969DD3"/><path fill-rule="evenodd" clip-rule="evenodd" d="M59.928 2.012A2.31 2.31 0 0 1 62 4.308v32.307l-.012.236a2.31 2.31 0 0 1-2.06 2.06l-.236.012H4.308l-.236-.012a2.31 2.31 0 0 1-2.06-2.06L2 36.615V4.308c0-1.195.908-2.178 2.072-2.296L4.308 2h55.384zM4.308 36.615h55.384V4.308H4.308z" fill="#969DD3"/></svg>