<svg width="64" height="64" viewBox="0 0 64 64" fill="none" xmlns="http://www.w3.org/2000/svg"><path d="M53.796 2a5.42 5.42 0 0 1 5.421 5.422V32.06a1.085 1.085 0 0 1-2.169 0V7.422a3.253 3.253 0 0 0-3.253-3.253H10.423A3.253 3.253 0 0 0 7.17 7.422v49.156a3.253 3.253 0 0 0 3.253 3.253h43.373a3.253 3.253 0 0 0 3.253-3.253v-15.73a1.084 1.084 0 0 1 2.17 0v15.73A5.42 5.42 0 0 1 53.794 62H10.423A5.42 5.42 0 0 1 5 56.578V7.422A5.42 5.42 0 0 1 10.422 2z" fill="#969DD3"/><path d="M36.314 12.482c-.592 0-1.072.483-1.072 1.08 0 .596.48 1.08 1.072 1.08H51.33c.592 0 1.072-.484 1.072-1.08s-.48-1.08-1.072-1.08zm-6.434 6.48c-.593 0-1.073.483-1.073 1.08 0 .596.48 1.08 1.072 1.08h21.45c.593 0 1.073-.484 1.073-1.08s-.48-1.08-1.072-1.08zm-5.363 7.56c0-.596.48-1.08 1.072-1.08h19.305c.593 0 1.073.484 1.073 1.08s-.48 1.08-1.073 1.08H25.59a1.076 1.076 0 0 1-1.072-1.08m24.666-1.08c-.592 0-1.072.484-1.072 1.08s.48 1.08 1.072 1.08h2.146c.592 0 1.072-.483 1.072-1.08 0-.596-.48-1.08-1.072-1.08zM13.192 40.675v9.578h-1.688v-9.578zm3.889 3.79v1.36h-3.997v-1.36zm1.54-3.79v9.578h-1.689v-9.578zm4.95 2.595q1.215 0 1.931.348.73.346 1.04 1.138.324.79.324 2.096 0 1.305-.324 2.096a2.1 2.1 0 0 1-1.04 1.139q-.715.347-1.93.347-1.19 0-1.918-.347a2.16 2.16 0 0 1-1.04-1.139q-.324-.79-.324-2.096 0-1.305.324-2.096t1.04-1.138q.729-.348 1.917-.347m0 1.278q-.593 0-.945.208-.338.194-.486.694-.15.5-.149 1.402 0 .903.149 1.402.148.5.486.694.352.195.945.195.608 0 .959-.195.351-.194.486-.694.15-.5.149-1.402 0-.902-.149-1.402-.135-.5-.486-.694-.351-.208-.959-.208m14.924-1.112-1.756 6.372a.6.6 0 0 1-.216.32.6.6 0 0 1-.378.124h-1.31a.62.62 0 0 1-.391-.139.54.54 0 0 1-.203-.374l-.878-4.179q-.054-.278-.094-.555a6 6 0 0 0-.081-.555h-.176q-.04.277-.094.555-.04.278-.095.555l-.864 4.179a.6.6 0 0 1-.216.374.58.58 0 0 1-.392.14h-1.296a.6.6 0 0 1-.378-.126.53.53 0 0 1-.203-.319l-1.768-6.372h1.66l1.108 4.678q.054.264.094.542.054.264.095.527h.162q.067-.263.108-.527l.108-.542.878-4.164a.63.63 0 0 1 .189-.361.57.57 0 0 1 .405-.153H33.7q.216 0 .378.153a.6.6 0 0 1 .203.375l.877 4.15q.04.264.095.528.067.264.108.541h.162q.054-.277.094-.527.04-.264.108-.542l1.108-4.678zm5.826-1.943v6.705q0 .43.176.61.189.18.635.181h.918l.175 1.18a5 5 0 0 1-.553.125q-.324.055-.635.07a6 6 0 0 1-.527.027q-.864 0-1.35-.472-.472-.486-.472-1.388v-7.038zm1.972 1.943v1.166h-4.78v-1.096l1.296-.07zm4.206-.167q1.215 0 1.93.348.73.346 1.04 1.138.324.79.324 2.096 0 1.305-.324 2.096a2.1 2.1 0 0 1-1.04 1.139q-.715.347-1.93.347-1.19 0-1.918-.347a2.16 2.16 0 0 1-1.04-1.139q-.324-.79-.324-2.096 0-1.305.324-2.096t1.04-1.138q.729-.348 1.917-.347m0 1.278q-.595 0-.946.208-.338.194-.486.694t-.148 1.402.148 1.402q.15.5.486.694.351.195.946.195.607 0 .958-.195.351-.194.486-.694.15-.5.149-1.402 0-.902-.149-1.402-.135-.5-.486-.694-.35-.208-.959-.208" fill="#969DD3"/></svg>