<svg width="64" height="64" viewBox="0 0 64 64" fill="none" xmlns="http://www.w3.org/2000/svg"><path fill-rule="evenodd" clip-rule="evenodd" d="M17.934 7.802a4 4 0 0 1-.212-.197C17.452 7.346 16.81 7 16.178 7a2.2 2.2 0 0 0-1.52.604c-.188.178-.277.256-.409.372-.125.11-.29.256-.618.556-2.197 2.015-3.888 3.629-4.451 4.25-1.04 1.158-1.706 2.259-1.972 3.278-.519 1.974.045 3.947 1.555 5.43.729.72 1.495 1.124 2.502 1.33a5.56 5.56 0 0 0 2.738-.154c.131-.037.248-.067.255-.06.023.023-.142.484-.236.663a2 2 0 0 1-.199.316c-.09.124-.181.249-.226.395a1 1 0 0 0-.041.27v.297c0 .432.35.782.783.782h3.693c.432 0 .783-.35.783-.782v-.292a1 1 0 0 0-.04-.28c-.051-.18-.167-.328-.284-.476l-.025-.032a1.2 1.2 0 0 1-.117-.198c-.094-.18-.26-.64-.237-.662.008-.008.124.022.256.06a5.57 5.57 0 0 0 3.4-.02c1.626-.542 3.034-2.164 3.455-3.977.116-.502.158-1.33.094-1.824-.184-1.386-.834-2.629-2.13-4.067-.579-.64-2.201-2.187-4.654-4.438a29 29 0 0 0-.599-.54m-8.367 6.255c.533-.67 2.265-2.345 5.296-5.131l.128-.117c.784-.719 1.595-.726 2.38-.008a408 408 0 0 1 2.176 2.012c1.424 1.326 2.904 2.798 3.257 3.244.95 1.195 1.36 2.142 1.409 3.277.04.933-.215 1.794-.774 2.61-.56.82-1.225 1.36-2.014 1.63-1.014.344-2.148.292-3.196-.15a9 9 0 0 1-.894-.472c-.445-.26-.618-.067-.556.444.065.546.168 1.227.236 1.5.12.48.41 1.146.526 1.217.124.079-.079.094-1.356.094s-1.48-.015-1.356-.094c.117-.071.406-.738.526-1.217.069-.273.171-.955.237-1.501.062-.51-.112-.702-.556-.443a9 9 0 0 1-.894.472c-1.048.442-2.186.494-3.197.15-.789-.27-1.453-.81-2.013-1.63-.56-.816-.815-1.677-.774-2.61.049-1.135.458-2.086 1.409-3.277m45.093 4.57q2.343-2.484 2.343-4.882 0-2.386-1.299-3.731t-3.59-1.345q-.634 0-1.293.233-.66.233-1.228.629t-.976.743a10 10 0 0 0-.778.738 10 10 0 0 0-.777-.738q-.409-.347-.977-.743a5 5 0 0 0-1.227-.63 3.9 3.9 0 0 0-1.294-.232q-2.29 0-3.59 1.345-1.298 1.344-1.298 3.732 0 .726.24 1.497.24.77.547 1.312t.696 1.058.567.71.282.283l6.381 6.53q.184.195.45.195a.6.6 0 0 0 .45-.195zm.814-6.433q.22.673.22 1.552 0 1.822-1.923 3.862L47.84 23.67l-5.942-6.075q-1.912-2.029-1.912-3.851 0-.879.22-1.552.22-.672.562-1.068t.834-.646a3.6 3.6 0 0 1 .961-.336 5.5 5.5 0 0 1 1.002-.087q.532 0 1.146.277t1.13.694.884.781.614.667q.184.24.501.239.318 0 .501-.239.246-.303.614-.667.367-.363.885-.781.516-.417 1.13-.694t1.145-.277 1.003.087q.47.087.96.336.492.25.834.646.343.396.563 1.068m-5.183 28.02c-1.078-1.918-3.837-1.918-4.915 0l-1.469 2.61a2.8 2.8 0 0 1-1.075 1.076l-2.611 1.469c-1.917 1.078-1.917 3.838 0 4.916l2.61 1.468c.451.253.823.625 1.076 1.076l1.469 2.61c1.078 1.918 3.837 1.918 4.915 0l1.468-2.61a2.8 2.8 0 0 1 1.076-1.076l2.61-1.468c1.918-1.078 1.918-3.838 0-4.916l-2.61-1.468a2.8 2.8 0 0 1-1.076-1.076zm.24 3.302-1.469-2.611a1.41 1.41 0 0 0-2.458 0l-1.468 2.61a4.23 4.23 0 0 1-1.613 1.614l-2.611 1.469a1.41 1.41 0 0 0 0 2.458l2.61 1.468a4.23 4.23 0 0 1 1.614 1.614l1.468 2.61a1.41 1.41 0 0 0 2.458 0l1.468-2.61a4.23 4.23 0 0 1 1.614-1.614l2.61-1.468a1.41 1.41 0 0 0 0-2.458l-2.61-1.469a4.23 4.23 0 0 1-1.614-1.613M18.117 39.71a2.5 2.5 0 0 0-3.868 0l-5.345 6.532a2.5 2.5 0 0 0 0 3.166l5.345 6.533a2.5 2.5 0 0 0 3.868 0l5.345-6.533a2.5 2.5 0 0 0 0-3.166zm-2.579 1.054a.833.833 0 0 1 1.29 0l5.345 6.534a.83.83 0 0 1 0 1.055l-5.345 6.533a.833.833 0 0 1-1.29 0l-5.344-6.533a.83.83 0 0 1 0-1.055z" fill="#969DD3"/><path d="M33.676 6.166C33.676 3.866 35.54 2 37.84 2h19.993A4.167 4.167 0 0 1 62 6.166v19.992c0 2.3-1.865 4.166-4.166 4.166H37.841a4.165 4.165 0 0 1-4.165-4.166l.006-8.786h1.666l-.006 8.786a2.5 2.5 0 0 0 2.499 2.5h19.993a2.5 2.5 0 0 0 2.5-2.5V6.166a2.5 2.5 0 0 0-2.5-2.5H37.841a2.5 2.5 0 0 0-2.5 2.5v4.697h-1.665z" fill="#969DD3"/><path d="M35.342 10.863h-1.666l.006 6.509h1.666zm-5.018 31.675h-1.666l.045 6.289h1.666z" fill="#969DD3"/><path d="M26.159 33.675c2.3 0 4.165 1.865 4.165 4.166v4.697h-1.666V37.84a2.5 2.5 0 0 0-2.5-2.5H6.166a2.5 2.5 0 0 0-2.499 2.5v19.993a2.5 2.5 0 0 0 2.5 2.5H26.16a2.5 2.5 0 0 0 2.499-2.5v-6.008c0-.46.045-3 .045-3h1.666l-.045 9.008c0 2.3-1.865 4.166-4.165 4.166H6.165A4.166 4.166 0 0 1 2 57.834V37.84c0-2.3 1.865-4.165 4.165-4.165z" fill="#969DD3"/><path fill-rule="evenodd" clip-rule="evenodd" d="M30.336 5.335a3.33 3.33 0 0 0-3.332-3.333H5.345a3.33 3.33 0 0 0-3.332 3.333v21.772a3.33 3.33 0 0 0 3.332 3.332h21.66a3.33 3.33 0 0 0 3.332-3.333zM5.346 3.67h21.658c.92 0 1.666.746 1.666 1.666v21.771c0 .92-.745 1.667-1.666 1.667H5.346c-.92 0-1.666-.746-1.666-1.666V5.335c0-.92.746-1.666 1.666-1.666M33.67 36.994A3.33 3.33 0 0 1 37 33.662h21.66a3.33 3.33 0 0 1 3.332 3.332v21.662a3.33 3.33 0 0 1-3.332 3.333H37a3.33 3.33 0 0 1-3.332-3.333zM37 35.328h21.66c.92 0 1.666.746 1.666 1.666v21.662c0 .92-.746 1.666-1.666 1.666H37c-.92 0-1.666-.746-1.666-1.666V36.994c0-.92.746-1.666 1.666-1.666" fill="#969DD3"/></svg>