<svg width="64" height="64" viewBox="0 0 64 64" fill="none" xmlns="http://www.w3.org/2000/svg"><path d="M53.639 37.352c1.084-.044 2.023-.5 2.26-1.733V22.533c-3.055-.878-4.5-4.588-2.714-7.51.62-1.01 1.858-1.888 2.983-2.01 5.895-.633 7.124 7.976 1.59 9.509V35.73c-.258 2.144-2.065 3.91-4.119 3.61-.114 2 .66 4.789-1.92 5.1-.517.055-1.136.044-1.642-.067l-.134.156v5.087c.382.667.97 1.022 1.156 1.856.217.966.207 6.687.062 7.798-.165 1.31-1.425 2.355-2.622 2.4H8.16c-1.084-.045-2.271-1.067-2.478-2.222-.392-2.244.186-5.477-.04-7.832.144-.811.608-1.355 1.135-1.9V25.388c.093-1.633 1.032-3.177 2.467-3.777 1.27-.522 2.685-.167 4.006-.3 1.456-3.744 4.873-6.265 8.631-6.543 4.233.233 8.714-.289 12.915 0 3.738.255 7.34 2.766 8.735 6.543 1.786.111 3.365-.366 4.883.911.485.4 1.497 1.744 1.497 2.388v7.277h2.323c.475 0 1.394 1.122 1.394 1.61v3.833zm5.792-19.573c0-1.522-1.146-2.744-2.55-2.744s-2.55 1.233-2.55 2.744c0 1.51 1.146 2.743 2.55 2.743s2.55-1.233 2.55-2.743m-17.974 3.576c-.155-.4-.465-.844-.723-1.166a8.92 8.92 0 0 0-6.453-3.388c-3.407-.222-8.373-.233-11.78 0s-5.699 1.81-7.175 4.555zm6.607 28.106V25.077c0-.722-1.487-1.91-2.22-1.722H10.64c-.63-.044-1.91.967-1.91 1.61v24.496zm3.717-15.553h-1.859v8.51h1.859zM49.313 51.45H7.49v8.12h41.823z" fill="#969DD3"/><path d="M13.607 2.163c6.286 0 11.382 5.097 11.382 11.383 0 1.004-.13 1.98-.375 2.91l-1.905-.502a9.4 9.4 0 0 0 .31-2.408 9.413 9.413 0 1 0-13.036 8.69l-.758 1.818c-4.11-1.716-7-5.773-7-10.508 0-6.286 5.096-11.383 11.382-11.383m4.912 53.038 19.603-.024c1.083.201 1.18 1.609.236 2.164H18.465c-.847-.52-.911-1.726.054-2.128z" fill="#969DD3"/><path d="M14.06 15.289c.466.007 1.356-.13 1.492.459.137.589-.215.795-.739.842-.524.048-2.813.076-3.272-.034-.46-.11-.61-.603-.359-.959s.338-.308.395-.308h1.184v-3.973h-1.184c-.057 0-.344-.24-.395-.309a.62.62 0 0 1 .36-.959c.3-.068 1.736-.082 2.03-.02.294.061.48.329.48.5v4.76zm-1.191-6.964c.5 0 .904-.425.904-.95s-.405-.949-.904-.949c-.5 0-.904.425-.904.95s.405.949.904.949M28.948 34.27h-2.753c-.613 0-.955-1.46.125-1.688s3.49-.094 4.02-.019c.53.076.945.616.841 1.138-.426 2.113-2.067 4.652-2.607 6.823-.509.976-1.922.663-1.9-.398l2.264-5.857zm11.086-.023H37.34c-.03 0-.336-.238-.386-.315-.427-.63-.051-1.287.701-1.402s3.456-.086 3.934.01a.95.95 0 0 1 .763.81l-2.603 7.146c-.376 1.03-1.952.677-1.84-.391l2.135-5.877zm-21.806.015H16.03c-.506 0-.722-1.48.1-1.688.82-.209 2.77-.095 3.21-.01.638.114.796.645.655 1.309-.473 2.162-1.535 4.476-2.057 6.657-.357.872-1.294.72-1.518-.17l1.808-6.089z" fill="#969DD3"/><path fill-rule="evenodd" clip-rule="evenodd" d="M43.194 25.968c1.394.08 2.503 1.375 2.503 2.962v15.708l-.004.153c-.068 1.516-1.15 2.732-2.499 2.809l-.136.004h-29.3l-.136-.004c-1.35-.077-2.43-1.293-2.5-2.81l-.003-.152V28.93c0-1.587 1.109-2.882 2.503-2.962l.135-.004H43.06zm-29.437 2.369c-.291 0-.527.265-.527.593v15.708c0 .328.236.593.527.593h8.088V28.337zM34.804 45.23h8.254c.292 0 .528-.266.529-.593V28.93c0-.328-.237-.593-.528-.593h-8.255zm-10.849 0h8.738V28.337h-8.738z" fill="#969DD3"/></svg>