<svg width="64" height="64" viewBox="0 0 64 64" fill="none" xmlns="http://www.w3.org/2000/svg"><path fill-rule="evenodd" clip-rule="evenodd" d="M2 9.69C2 5.443 5.419 2 9.636 2h26.182c4.218 0 7.637 3.443 7.637 7.69v10.986h10.909c4.217 0 7.636 3.442 7.636 7.69V48.37c0 2.61-1.888 4.777-4.364 5.19v6.898c0 1.257-1.416 1.983-2.425 1.244l-11.02-8.07H28.18c-4.217 0-7.635-3.444-7.635-7.69V34.956h-.737l-11.02 8.07c-1.01.74-2.425.014-2.425-1.243v-6.898C3.888 34.472 2 32.306 2 29.696zm20.727 25.267v10.985c0 3.034 2.442 5.493 5.455 5.493H44.25q.075 0 .148.01c.27-.037.552.027.79.2l10.267 7.52v-6.631a1.095 1.095 0 0 1 1.205-1.093q.057-.006.115-.006c1.68 0 3.043-1.372 3.043-3.064V28.365c0-3.033-2.442-5.492-5.454-5.492h-10.91v4.394c0 4.247-3.418 7.69-7.636 7.69zm18.546-7.69c0 3.034-2.442 5.493-5.455 5.493H19.453q-.04 0-.08.003c-.224.016-.43.1-.596.233L8.546 40.489v-6.63a1.095 1.095 0 0 0-1.205-1.093 1 1 0 0 0-.115-.006c-1.68 0-3.043-1.372-3.043-3.065V9.69c0-3.034 2.442-5.493 5.454-5.493h26.182c3.013 0 5.455 2.46 5.455 5.493z" fill="#969DD3"/><path d="M20.542 8.591c-.603 0-1.09.492-1.09 1.099s.487 1.099 1.09 1.099h15.273c.602 0 1.09-.492 1.09-1.1 0-.606-.488-1.098-1.09-1.098zm-6.545 6.592c-.603 0-1.091.492-1.091 1.098s.488 1.099 1.09 1.099h21.819c.602 0 1.09-.492 1.09-1.099 0-.606-.488-1.098-1.09-1.098zm-5.455 7.69c0-.607.488-1.099 1.09-1.099H29.27c.603 0 1.091.492 1.091 1.099 0 .606-.488 1.098-1.09 1.098H9.632a1.094 1.094 0 0 1-1.091-1.098m25.092-1.099c-.603 0-1.091.492-1.091 1.099 0 .606.488 1.098 1.09 1.098h2.183c.602 0 1.09-.492 1.09-1.098s-.488-1.099-1.09-1.099zm17.457 15.38c.602 0 1.09-.492 1.09-1.099s-.488-1.099-1.09-1.099h-8.728c-.602 0-1.09.492-1.09 1.099s.488 1.099 1.09 1.099zm4.363 4.394c.603 0 1.091.492 1.091 1.098s-.488 1.099-1.09 1.099H29.271a1.095 1.095 0 0 1-1.091-1.099c0-.606.488-1.098 1.09-1.098z" fill="#969DD3"/></svg>